<svg width="640" height="480" viewBox="0 0 640 480" fill="none" xmlns="http://www.w3.org/2000/svg">
<path d="M372.61 211.3H344.01V226.83H375.86C379.07 226.83 382.07 225.21 383.82 222.52L384.05 222.16C385 220.71 385.5 219.02 385.5 217.29V168.68C385.5 168.58 385.5 121.4 385.5 121.3H381.63C376.72 121.3 372.74 125.27 372.73 130.18L372.6 211.3H372.61Z" fill="#91CFA7"/>
<path d="M372.61 211.3H344.01V226.83H375.86C379.07 226.83 382.07 225.21 383.82 222.52L384.05 222.16C385 220.71 385.5 219.02 385.5 217.29V168.68C385.5 168.58 385.5 121.4 385.5 121.3H381.63C376.72 121.3 372.74 125.27 372.73 130.18L372.6 211.3H372.61Z" fill="#91CFA7"/>
<path d="M445.51 211.3H416.91V226.83H447.83C451.62 226.83 455.16 224.92 457.24 221.74C458.01 220.57 458.41 219.2 458.41 217.8V168.68C458.41 168.58 458.41 121.4 458.41 121.3H456.98C450.72 121.3 445.65 126.37 445.64 132.62L445.51 211.3Z" fill="#91CFA7"/>
<path d="M445.51 211.3H416.91V226.83H447.83C451.62 226.83 455.16 224.92 457.24 221.74C458.01 220.57 458.41 219.2 458.41 217.8V168.68C458.41 168.58 458.41 121.4 458.41 121.3H456.98C450.72 121.3 445.65 126.37 445.64 132.62L445.51 211.3Z" fill="#91CFA7"/>
<path d="M421.59 226.77H447.03C448.77 226.77 450.19 225.36 450.19 223.61V211.24H418.21C415.08 211.24 412.16 212.82 410.45 215.44C409.3 217.19 408.69 219.24 408.69 221.33V269.38C408.69 269.48 408.69 316.66 408.69 316.76H414.44C418.31 316.76 421.45 313.63 421.46 309.75L421.6 226.76L421.59 226.77Z" fill="#91CFA7"/>
<path d="M421.59 226.77H447.03C448.77 226.77 450.19 225.36 450.19 223.61V211.24H418.21C415.08 211.24 412.16 212.82 410.45 215.44C409.3 217.19 408.69 219.24 408.69 221.33V269.38C408.69 269.48 408.69 316.66 408.69 316.76H414.44C418.31 316.76 421.45 313.63 421.46 309.75L421.6 226.76L421.59 226.77Z" fill="#91CFA7"/>
<path d="M160.81 305.24C160.81 309.41 159.45 312.82 156.72 315.46C153.99 318.1 150.54 319.42 146.37 319.42H94.89C90.72 319.42 87.31 318.1 84.67 315.46C82.03 312.82 80.71 309.41 80.71 305.24V133.67C80.71 129.5 82.03 126.09 84.67 123.45C87.31 120.81 90.72 119.49 94.89 119.49H146.37C150.54 119.49 153.99 120.81 156.72 123.45C159.44 126.09 160.81 129.5 160.81 133.67V180.17H142.92V135.2H98.46V303.71H142.92V254.53H160.81V305.25V305.24Z" fill="#0061AE"/>
<path d="M160.81 305.24C160.81 309.41 159.45 312.82 156.72 315.46C153.99 318.1 150.54 319.42 146.37 319.42H94.89C90.72 319.42 87.31 318.1 84.67 315.46C82.03 312.82 80.71 309.41 80.71 305.24V133.67C80.71 129.5 82.03 126.09 84.67 123.45C87.31 120.81 90.72 119.49 94.89 119.49H146.37C150.54 119.49 153.99 120.81 156.72 123.45C159.44 126.09 160.81 129.5 160.81 133.67V180.17H142.92V135.2H98.46V303.71H142.92V254.53H160.81V305.25V305.24Z" fill="#0061AE"/>
<path d="M260.32 304.72C260.32 314.52 255.51 319.41 245.88 319.41H203.21C193.67 319.41 188.9 314.51 188.9 304.72V207.58C188.9 197.78 193.67 192.89 203.21 192.89H245.88C255.5 192.89 260.32 197.79 260.32 207.58V304.72ZM243.33 304.2V208.1H205.9V304.2H243.33Z" fill="#0061AE"/>
<path d="M260.32 304.72C260.32 314.52 255.51 319.41 245.88 319.41H203.21C193.67 319.41 188.9 314.51 188.9 304.72V207.58C188.9 197.78 193.67 192.89 203.21 192.89H245.88C255.5 192.89 260.32 197.79 260.32 207.58V304.72ZM243.33 304.2V208.1H205.9V304.2H243.33Z" fill="#0061AE"/>
<path d="M303.19 210.06H303.75C303.75 209.97 303.75 209.89 303.75 209.8H303.18V135.19H350.32V119.48H297.67C290.9 119.48 285.42 124.97 285.42 131.73V307.43C285.42 314.05 290.78 319.41 297.4 319.41H351.09V303.7H303.18V210.06H303.19Z" fill="#0061AE"/>
<path d="M303.19 210.06H303.75C303.75 209.97 303.75 209.89 303.75 209.8H303.18V135.19H350.32V119.48H297.67C290.9 119.48 285.42 124.97 285.42 131.73V307.43C285.42 314.05 290.78 319.41 297.4 319.41H351.09V303.7H303.18V210.06H303.19Z" fill="#0061AE"/>
<path d="M372.85 132.17H403.5V130.83C403.5 124.56 398.57 119.48 392.49 119.48H384.23C377.94 119.48 372.85 124.74 372.85 131.22V132.16V132.17Z" fill="#91CFA7"/>
<path d="M448.49 132.17H473.52C475.11 132.17 476.41 130.84 476.41 129.2V129.14C476.41 123.8 472.19 119.48 466.99 119.48H455.08C449.85 119.48 445.61 123.84 445.61 129.2C445.61 130.84 446.9 132.16 448.5 132.16L448.49 132.17Z" fill="#91CFA7"/>
<path d="M402.43 319.37H412.31C417.49 319.37 421.3 315.35 421.3 310.07L421.24 309.38C421.24 307.81 420.44 306.69 418.9 306.69H393.49C391.95 306.69 392.55 307.42 392.55 308.98L392.47 307.75C392.47 313.07 397.21 319.37 402.42 319.37H402.43Z" fill="#91CFA7"/>
<path d="M402.43 319.37H412.31C417.49 319.37 421.3 315.35 421.3 310.07L421.24 309.38C421.24 307.81 420.44 306.69 418.9 306.69H393.49C391.95 306.69 392.55 307.42 392.55 308.98L392.47 307.75C392.47 313.07 397.21 319.37 402.42 319.37H402.43Z" fill="#91CFA7"/>
<path d="M390.82 127.75L390.7 307.89C390.7 314.41 395.9 319.37 402.42 319.37H403.38L403.5 130.41C403.5 128.94 402.31 127.75 400.85 127.75H390.82Z" fill="#91CFA7"/>
<path d="M390.82 127.75L390.7 307.89C390.7 314.41 395.9 319.37 402.42 319.37H403.38L403.5 130.41C403.5 128.94 402.31 127.75 400.85 127.75H390.82Z" fill="#91CFA7"/>
<path d="M463.72 127.75L463.6 307.65C463.6 314.31 468.95 319.37 475.6 319.37H476.27L476.39 129.17C476.39 128.39 475.76 127.76 474.98 127.76H463.71L463.72 127.75Z" fill="#91CFA7"/>
<path d="M463.72 127.75L463.6 307.65C463.6 314.31 468.95 319.37 475.6 319.37H476.27L476.39 129.17C476.39 128.39 475.76 127.76 474.98 127.76H463.71L463.72 127.75Z" fill="#91CFA7"/>
<path d="M542.81 245.05H512.24V246.73H542.81V245.05Z" fill="#91CFA7"/>
<path d="M542.81 245.05H512.24V246.73H542.81V245.05Z" fill="#91CFA7"/>
<path d="M466.48 306.69V312.57C466.48 316.33 470.66 319.37 475.82 319.37H493.42C493.42 317.84 493.42 310.97 493.42 306.69H466.48Z" fill="#91CFA7"/>
<path d="M466.48 306.69V312.57C466.48 316.33 470.66 319.37 475.82 319.37H493.42C493.42 317.84 493.42 310.97 493.42 306.69H466.48Z" fill="#91CFA7"/>
<path d="M493.53 306.69H493.42C493.42 310.98 493.42 317.84 493.42 319.37H494.33L499.32 317.53C495.79 315.53 493.88 311.9 493.53 306.69Z" fill="#91CFA7"/>
<path d="M493.53 306.69H493.42C493.42 310.98 493.42 317.84 493.42 319.37H494.33L499.32 317.53C495.79 315.53 493.88 311.9 493.53 306.69Z" fill="#91CFA7"/>
<path d="M508.52 224.6V207.07H559.27C559.18 197.63 554.63 192.89 545.58 192.89H506.43C497.29 192.89 492.73 197.7 492.73 207.33V232.56H508.51V224.6H508.52Z" fill="#0061AE"/>
<path d="M508.52 224.6V207.07H559.27C559.18 197.63 554.63 192.89 545.58 192.89H506.43C497.29 192.89 492.73 197.7 492.73 207.33V232.56H508.51V224.6H508.52Z" fill="#0061AE"/>
<path d="M544.98 319.42C554.52 319.42 559.29 314.61 559.29 304.98V282.5H542.81V305.24H519.34V319.42H544.98Z" fill="#0061AE"/>
<path d="M544.98 319.42C554.52 319.42 559.29 314.61 559.29 304.98V282.5H542.81V305.24H519.34V319.42H544.98Z" fill="#0061AE"/>
<path d="M495.69 317.53L497.75 316.77C501.62 316.77 506.26 310.56 506.27 306.69H489.9C490.25 311.9 492.16 315.54 495.69 317.54V317.53Z" fill="#91CFA7"/>
<path d="M495.69 317.53L497.75 316.77C501.62 316.77 506.26 310.56 506.27 306.69H489.9C490.25 311.9 492.16 315.54 495.69 317.54V317.53Z" fill="#91CFA7"/>
<path d="M543.51 232.56H559.29V207.33C559.29 207.24 559.27 207.16 559.27 207.07H543.5V232.56H543.51Z" fill="#0061AE"/>
<path d="M543.51 232.56H559.29V207.33C559.29 207.24 559.27 207.16 559.27 207.07H543.5V232.56H543.51Z" fill="#0061AE"/>
<path d="M559.29 232.56H543.51V239.61H559.29V232.56Z" fill="#0061AE"/>
<path d="M559.29 232.56H543.51V239.61H559.29V232.56Z" fill="#0061AE"/>
<path d="M559.29 232.56H543.51V239.61H559.29V232.56Z" fill="#0061AE"/>
<path d="M559.29 232.56H543.51V239.61H559.29V232.56Z" fill="#0061AE"/>
<path d="M492.79 232.56V245.89C493.24 245.23 493.72 244.65 494.21 244.15C498.84 239.39 505.61 240.74 508.57 240.33V232.56H492.79Z" fill="#0061AE"/>
<path d="M492.79 232.56V245.89C493.24 245.23 493.72 244.65 494.21 244.15C498.84 239.39 505.61 240.74 508.57 240.33V232.56H492.79Z" fill="#0061AE"/>
<path d="M559.29 260.18V245.04H506.27V260.18H530.68H559.29Z" fill="#91CFA7"/>
<path d="M559.29 260.18V245.04H506.27V260.18H530.68H559.29Z" fill="#91CFA7"/>
<path d="M363.31 226.68V211.25H313.24V226.68H336.3H363.31Z" fill="#91CFA7"/>
<path d="M363.31 226.68V211.25H313.24V226.68H336.3H363.31Z" fill="#91CFA7"/>
<path d="M512.24 245.04H506.27V246.72H512.24V245.04Z" fill="#91CFA7"/>
<path d="M512.24 245.04H506.27V246.72H512.24V245.04Z" fill="#91CFA7"/>
<path d="M508.45 319.39C512.08 319.39 515.71 319.41 519.34 319.42V305.24C516.59 305.27 513.84 305.31 511.09 305.34C511.25 307.54 511.23 309.37 511.17 310.66C511.09 312.56 511.03 313.59 510.68 314.9C510.12 316.94 509.15 318.46 508.45 319.38V319.39Z" fill="#0061AE"/>
<path d="M508.45 319.39C512.08 319.39 515.71 319.41 519.34 319.42V305.24C516.59 305.27 513.84 305.31 511.09 305.34C511.25 307.54 511.23 309.37 511.17 310.66C511.09 312.56 511.03 313.59 510.68 314.9C510.12 316.94 509.15 318.46 508.45 319.38V319.39Z" fill="#0061AE"/>
<path d="M493.54 319.37H499.29C503.16 319.37 506.3 316.24 506.31 312.36L506.37 277.71H493.55C493.55 290.3 493.55 319.28 493.55 319.36L493.54 319.37Z" fill="#91CFA7"/>
<path d="M493.54 319.37H499.29C503.16 319.37 506.3 316.24 506.31 312.36L506.37 277.71H493.55C493.55 290.3 493.55 319.28 493.55 319.36L493.54 319.37Z" fill="#91CFA7"/>
<path d="M535.05 260.18V245.04H503.07C499.94 245.04 497.02 246.61 495.31 249.21C494.16 250.95 493.55 252.98 493.55 255.06V300.19H506.39L506.46 260.18H535.06H535.05Z" fill="#91CFA7"/>
<path d="M535.05 260.18V245.04H503.07C499.94 245.04 497.02 246.61 495.31 249.21C494.16 250.95 493.55 252.98 493.55 255.06V300.19H506.39L506.46 260.18H535.06H535.05Z" fill="#91CFA7"/>
<path d="M455.9 128.28H445.6V137.13H455.9V128.28Z" fill="#91CFA7"/>
<path d="M177.19 217.04C177.19 217.12 177.19 217.2 177.19 217.28C177.24 217.22 177.25 217.15 177.19 217.04Z" fill="#91CFA7"/>
<path d="M177.19 217.04C177.19 217.12 177.19 217.2 177.19 217.28C177.24 217.22 177.25 217.15 177.19 217.04Z" fill="#91CFA7"/>
<path d="M173.03 213.69C170.15 213.66 170.44 214.25 169.4 211.18C168.43 208.77 167.56 207.96 169.84 206.11C170.81 205.16 170.95 204.27 170.17 203.15C168.96 201.68 165.81 197.35 163.82 199.38C162.3 201.54 160.59 201.42 158.65 200.11C156.62 199.62 155.5 198.79 155.93 196.57C156.28 193 151.17 193.92 148.89 194.08C144.88 194.7 149.04 199.3 144.41 199.88C139 203.39 140.15 196.82 136.34 199.13C126.61 206.6 137.18 204.74 133.46 210.27C133.34 210.43 133.3 210.64 133.23 210.83C132.3 215.66 128.15 211.14 127.31 215.31C125.81 227.33 131.85 218.37 133.33 225.5C136.7 231.26 126.21 229.14 136.39 236.89C139.81 238.69 138.68 232.6 144.21 236.09C148.8 236.74 144.44 241.62 148.65 241.96C150.91 242.21 155.62 243.02 155.63 239.69C155.37 236.78 156.55 236.81 158.99 235.86C162.85 233.31 162.74 238.95 166.05 237.01C167.83 235.53 171.99 232.84 169.69 230.32C167.85 228.39 167.88 228.37 168.99 225.92C169.65 223.67 170.34 222.23 172.99 222.71C174.33 222.91 174.95 222.14 175.18 220.92C175.37 218.65 176.37 213.92 173.06 213.69H173.03ZM151.34 232.25C143.51 232.25 137.17 225.91 137.17 218.08C137.17 210.25 143.51 203.91 151.34 203.91C159.17 203.91 165.51 210.25 165.51 218.08C165.51 225.91 159.17 232.25 151.34 232.25Z" fill="#91CFA7"/>
<path d="M141.16 215.85C138.52 229.3 158.25 233.47 161.32 220.15C164.07 206.96 144 202.68 141.16 215.85Z" fill="#91CFA7"/>
<path d="M91.5768 364.374C88.8104 364.374 86.6576 363.438 85.1184 361.566C83.5792 359.674 82.8096 356.897 82.8096 353.236C82.8096 349.575 83.5792 346.767 85.1184 344.812C86.6576 342.836 88.8104 341.848 91.5768 341.848C93.4072 341.848 94.936 342.264 96.1632 343.096C97.4112 343.928 98.3784 345.103 99.0648 346.622L96.9432 347.901C96.5064 346.778 95.8408 345.883 94.9464 345.218C94.052 344.531 92.9288 344.188 91.5768 344.188C90.6408 344.188 89.7984 344.365 89.0496 344.718C88.3216 345.072 87.6976 345.582 87.1776 346.247C86.6784 346.892 86.2936 347.672 86.0232 348.587C85.7528 349.482 85.6176 350.49 85.6176 351.614V354.858C85.6176 357.105 86.1376 358.862 87.1776 360.131C88.2176 361.4 89.684 362.034 91.5768 362.034C92.9704 362.034 94.1352 361.681 95.0712 360.974C96.0072 360.246 96.6936 359.289 97.1304 358.103L99.2208 359.414C98.5344 360.953 97.5464 362.17 96.2568 363.064C94.9672 363.938 93.4072 364.374 91.5768 364.374ZM109.083 364.374C107.981 364.374 106.982 364.177 106.088 363.782C105.214 363.386 104.455 362.825 103.81 362.097C103.186 361.348 102.697 360.464 102.344 359.445C102.011 358.405 101.845 357.24 101.845 355.95C101.845 354.682 102.011 353.527 102.344 352.487C102.697 351.447 103.186 350.563 103.81 349.835C104.455 349.086 105.214 348.514 106.088 348.119C106.982 347.724 107.981 347.526 109.083 347.526C110.165 347.526 111.132 347.724 111.985 348.119C112.837 348.514 113.565 349.066 114.169 349.773C114.772 350.459 115.229 351.281 115.541 352.238C115.874 353.194 116.041 354.245 116.041 355.389V356.574H104.465V357.323C104.465 358.01 104.569 358.654 104.777 359.258C105.006 359.84 105.318 360.35 105.713 360.786C106.129 361.223 106.629 361.566 107.211 361.816C107.814 362.066 108.49 362.19 109.239 362.19C110.258 362.19 111.142 361.951 111.891 361.473C112.661 360.994 113.253 360.308 113.669 359.414L115.448 360.693C114.928 361.795 114.117 362.69 113.014 363.376C111.912 364.042 110.601 364.374 109.083 364.374ZM109.083 349.617C108.397 349.617 107.773 349.742 107.211 349.991C106.649 350.22 106.161 350.553 105.745 350.99C105.349 351.426 105.037 351.946 104.809 352.55C104.58 353.132 104.465 353.777 104.465 354.484V354.702H113.357V354.359C113.357 352.924 112.962 351.78 112.172 350.927C111.402 350.054 110.373 349.617 109.083 349.617ZM120.154 364V347.901H122.65V350.522H122.774C123.17 349.606 123.721 348.878 124.428 348.338C125.156 347.797 126.123 347.526 127.33 347.526C128.994 347.526 130.304 348.067 131.261 349.149C132.238 350.21 132.727 351.718 132.727 353.673V364H130.231V354.11C130.231 351.218 129.014 349.773 126.581 349.773C126.082 349.773 125.593 349.835 125.114 349.96C124.657 350.085 124.241 350.272 123.866 350.522C123.492 350.771 123.19 351.094 122.962 351.489C122.754 351.863 122.65 352.31 122.65 352.83V364H120.154ZM141.443 364C140.57 364 139.904 363.761 139.446 363.282C139.01 362.783 138.791 362.138 138.791 361.348V350.085H136.139V347.901H137.637C138.178 347.901 138.542 347.797 138.729 347.589C138.937 347.36 139.041 346.975 139.041 346.434V343.439H141.287V347.901H144.813V350.085H141.287V361.816H144.563V364H141.443ZM154.756 364.374C153.653 364.374 152.655 364.177 151.76 363.782C150.887 363.386 150.128 362.825 149.483 362.097C148.859 361.348 148.37 360.464 148.016 359.445C147.684 358.405 147.517 357.24 147.517 355.95C147.517 354.682 147.684 353.527 148.016 352.487C148.37 351.447 148.859 350.563 149.483 349.835C150.128 349.086 150.887 348.514 151.76 348.119C152.655 347.724 153.653 347.526 154.756 347.526C155.837 347.526 156.804 347.724 157.657 348.119C158.51 348.514 159.238 349.066 159.841 349.773C160.444 350.459 160.902 351.281 161.214 352.238C161.547 353.194 161.713 354.245 161.713 355.389V356.574H150.138V357.323C150.138 358.01 150.242 358.654 150.45 359.258C150.679 359.84 150.991 360.35 151.386 360.786C151.802 361.223 152.301 361.566 152.884 361.816C153.487 362.066 154.163 362.19 154.912 362.19C155.931 362.19 156.815 361.951 157.564 361.473C158.333 360.994 158.926 360.308 159.342 359.414L161.12 360.693C160.6 361.795 159.789 362.69 158.687 363.376C157.584 364.042 156.274 364.374 154.756 364.374ZM154.756 349.617C154.069 349.617 153.445 349.742 152.884 349.991C152.322 350.22 151.833 350.553 151.417 350.99C151.022 351.426 150.71 351.946 150.481 352.55C150.252 353.132 150.138 353.777 150.138 354.484V354.702H159.03V354.359C159.03 352.924 158.635 351.78 157.844 350.927C157.075 350.054 156.045 349.617 154.756 349.617ZM165.826 364V347.901H168.322V350.865H168.478C168.769 350.095 169.289 349.409 170.038 348.806C170.787 348.202 171.817 347.901 173.127 347.901H174.094V350.397H172.628C171.276 350.397 170.215 350.657 169.445 351.177C168.697 351.676 168.322 352.31 168.322 353.08V364H165.826ZM190.74 364.374C189.658 364.374 188.67 364.177 187.776 363.782C186.882 363.386 186.112 362.825 185.467 362.097C184.843 361.348 184.354 360.464 184.001 359.445C183.647 358.405 183.47 357.24 183.47 355.95C183.47 354.682 183.647 353.527 184.001 352.487C184.354 351.447 184.843 350.563 185.467 349.835C186.112 349.086 186.882 348.514 187.776 348.119C188.67 347.724 189.658 347.526 190.74 347.526C191.822 347.526 192.799 347.724 193.673 348.119C194.567 348.514 195.337 349.086 195.982 349.835C196.626 350.563 197.126 351.447 197.479 352.487C197.833 353.527 198.01 354.682 198.01 355.95C198.01 357.24 197.833 358.405 197.479 359.445C197.126 360.464 196.626 361.348 195.982 362.097C195.337 362.825 194.567 363.386 193.673 363.782C192.799 364.177 191.822 364.374 190.74 364.374ZM190.74 362.159C192.092 362.159 193.194 361.743 194.047 360.911C194.9 360.079 195.326 358.81 195.326 357.105V354.796C195.326 353.09 194.9 351.822 194.047 350.99C193.194 350.158 192.092 349.742 190.74 349.742C189.388 349.742 188.286 350.158 187.433 350.99C186.58 351.822 186.154 353.09 186.154 354.796V357.105C186.154 358.81 186.58 360.079 187.433 360.911C188.286 361.743 189.388 362.159 190.74 362.159ZM202.805 350.085H200.184V347.901H202.805V344.656C202.805 343.533 203.096 342.628 203.679 341.942C204.261 341.255 205.145 340.912 206.331 340.912H208.764V343.096H205.301V347.901H208.764V350.085H205.301V364H202.805V350.085ZM219.67 364V342.222H232.962V344.531H222.291V351.832H232.338V354.141H222.291V361.691H232.962V364H219.67ZM235.614 364L241.573 355.888L235.863 347.901H238.796L242.883 353.891H242.977L247.22 347.901H249.997L244.319 355.701L250.122 364H247.189L243.008 357.698H242.915L238.391 364H235.614ZM259.049 364.374C257.925 364.374 256.917 364.177 256.022 363.782C255.128 363.386 254.369 362.825 253.745 362.097C253.141 361.369 252.673 360.485 252.341 359.445C252.029 358.405 251.873 357.24 251.873 355.95C251.873 354.661 252.029 353.496 252.341 352.456C252.673 351.416 253.141 350.532 253.745 349.804C254.369 349.076 255.128 348.514 256.022 348.119C256.917 347.724 257.925 347.526 259.049 347.526C260.65 347.526 261.929 347.88 262.886 348.587C263.864 349.274 264.592 350.178 265.07 351.302L262.98 352.362C262.689 351.53 262.21 350.886 261.545 350.428C260.879 349.97 260.047 349.742 259.049 349.742C258.3 349.742 257.645 349.866 257.083 350.116C256.521 350.345 256.053 350.678 255.679 351.114C255.305 351.53 255.024 352.04 254.837 352.643C254.649 353.226 254.556 353.87 254.556 354.578V357.323C254.556 358.738 254.93 359.902 255.679 360.818C256.449 361.712 257.572 362.159 259.049 362.159C261.066 362.159 262.522 361.223 263.417 359.351L265.226 360.568C264.706 361.733 263.926 362.658 262.886 363.345C261.867 364.031 260.588 364.374 259.049 364.374ZM274.62 364.374C273.517 364.374 272.519 364.177 271.624 363.782C270.751 363.386 269.992 362.825 269.347 362.097C268.723 361.348 268.234 360.464 267.88 359.445C267.548 358.405 267.381 357.24 267.381 355.95C267.381 354.682 267.548 353.527 267.88 352.487C268.234 351.447 268.723 350.563 269.347 349.835C269.992 349.086 270.751 348.514 271.624 348.119C272.519 347.724 273.517 347.526 274.62 347.526C275.701 347.526 276.668 347.724 277.521 348.119C278.374 348.514 279.102 349.066 279.705 349.773C280.308 350.459 280.766 351.281 281.078 352.238C281.411 353.194 281.577 354.245 281.577 355.389V356.574H270.002V357.323C270.002 358.01 270.106 358.654 270.314 359.258C270.543 359.84 270.855 360.35 271.25 360.786C271.666 361.223 272.165 361.566 272.748 361.816C273.351 362.066 274.027 362.19 274.776 362.19C275.795 362.19 276.679 361.951 277.428 361.473C278.197 360.994 278.79 360.308 279.206 359.414L280.984 360.693C280.464 361.795 279.653 362.69 278.551 363.376C277.448 364.042 276.138 364.374 274.62 364.374ZM274.62 349.617C273.933 349.617 273.309 349.742 272.748 349.991C272.186 350.22 271.697 350.553 271.281 350.99C270.886 351.426 270.574 351.946 270.345 352.55C270.116 353.132 270.002 353.777 270.002 354.484V354.702H278.894V354.359C278.894 352.924 278.499 351.78 277.708 350.927C276.939 350.054 275.909 349.617 274.62 349.617ZM288.342 364C287.469 364 286.803 363.761 286.345 363.282C285.909 362.783 285.69 362.159 285.69 361.41V340.912H288.186V361.816H290.557V364H288.342ZM296.691 364C295.817 364 295.152 363.761 294.694 363.282C294.257 362.783 294.039 362.159 294.039 361.41V340.912H296.535V361.816H298.906V364H296.691ZM308.592 364.374C307.49 364.374 306.492 364.177 305.597 363.782C304.724 363.386 303.964 362.825 303.32 362.097C302.696 361.348 302.207 360.464 301.853 359.445C301.52 358.405 301.354 357.24 301.354 355.95C301.354 354.682 301.52 353.527 301.853 352.487C302.207 351.447 302.696 350.563 303.32 349.835C303.964 349.086 304.724 348.514 305.597 348.119C306.492 347.724 307.49 347.526 308.592 347.526C309.674 347.526 310.641 347.724 311.494 348.119C312.347 348.514 313.075 349.066 313.678 349.773C314.281 350.459 314.739 351.281 315.051 352.238C315.384 353.194 315.55 354.245 315.55 355.389V356.574H303.975V357.323C303.975 358.01 304.079 358.654 304.287 359.258C304.516 359.84 304.828 360.35 305.223 360.786C305.639 361.223 306.138 361.566 306.72 361.816C307.324 362.066 308 362.19 308.748 362.19C309.768 362.19 310.652 361.951 311.4 361.473C312.17 360.994 312.763 360.308 313.179 359.414L314.957 360.693C314.437 361.795 313.626 362.69 312.524 363.376C311.421 364.042 310.111 364.374 308.592 364.374ZM308.592 349.617C307.906 349.617 307.282 349.742 306.72 349.991C306.159 350.22 305.67 350.553 305.254 350.99C304.859 351.426 304.547 351.946 304.318 352.55C304.089 353.132 303.975 353.777 303.975 354.484V354.702H312.867V354.359C312.867 352.924 312.472 351.78 311.681 350.927C310.912 350.054 309.882 349.617 308.592 349.617ZM319.663 364V347.901H322.159V350.522H322.284C322.679 349.606 323.23 348.878 323.937 348.338C324.665 347.797 325.633 347.526 326.839 347.526C328.503 347.526 329.813 348.067 330.77 349.149C331.748 350.21 332.237 351.718 332.237 353.673V364H329.741V354.11C329.741 351.218 328.524 349.773 326.09 349.773C325.591 349.773 325.102 349.835 324.624 349.96C324.166 350.085 323.75 350.272 323.376 350.522C323.001 350.771 322.7 351.094 322.471 351.489C322.263 351.863 322.159 352.31 322.159 352.83V364H319.663ZM343.386 364.374C342.263 364.374 341.254 364.177 340.36 363.782C339.465 363.386 338.706 362.825 338.082 362.097C337.479 361.369 337.011 360.485 336.678 359.445C336.366 358.405 336.21 357.24 336.21 355.95C336.21 354.661 336.366 353.496 336.678 352.456C337.011 351.416 337.479 350.532 338.082 349.804C338.706 349.076 339.465 348.514 340.36 348.119C341.254 347.724 342.263 347.526 343.386 347.526C344.988 347.526 346.267 347.88 347.224 348.587C348.201 349.274 348.929 350.178 349.408 351.302L347.317 352.362C347.026 351.53 346.548 350.886 345.882 350.428C345.217 349.97 344.385 349.742 343.386 349.742C342.637 349.742 341.982 349.866 341.421 350.116C340.859 350.345 340.391 350.678 340.017 351.114C339.642 351.53 339.361 352.04 339.174 352.643C338.987 353.226 338.893 353.87 338.893 354.578V357.323C338.893 358.738 339.268 359.902 340.017 360.818C340.786 361.712 341.909 362.159 343.386 362.159C345.404 362.159 346.86 361.223 347.754 359.351L349.564 360.568C349.044 361.733 348.264 362.658 347.224 363.345C346.205 364.031 344.925 364.374 343.386 364.374ZM358.957 364.374C357.855 364.374 356.856 364.177 355.962 363.782C355.088 363.386 354.329 362.825 353.684 362.097C353.06 361.348 352.572 360.464 352.218 359.445C351.885 358.405 351.719 357.24 351.719 355.95C351.719 354.682 351.885 353.527 352.218 352.487C352.572 351.447 353.06 350.563 353.684 349.835C354.329 349.086 355.088 348.514 355.962 348.119C356.856 347.724 357.855 347.526 358.957 347.526C360.039 347.526 361.006 347.724 361.859 348.119C362.712 348.514 363.44 349.066 364.043 349.773C364.646 350.459 365.104 351.281 365.416 352.238C365.748 353.194 365.915 354.245 365.915 355.389V356.574H354.34V357.323C354.34 358.01 354.444 358.654 354.652 359.258C354.88 359.84 355.192 360.35 355.588 360.786C356.004 361.223 356.503 361.566 357.085 361.816C357.688 362.066 358.364 362.19 359.113 362.19C360.132 362.19 361.016 361.951 361.765 361.473C362.535 360.994 363.128 360.308 363.544 359.414L365.322 360.693C364.802 361.795 363.991 362.69 362.888 363.376C361.786 364.042 360.476 364.374 358.957 364.374ZM358.957 349.617C358.271 349.617 357.647 349.742 357.085 349.991C356.524 350.22 356.035 350.553 355.619 350.99C355.224 351.426 354.912 351.946 354.683 352.55C354.454 353.132 354.34 353.777 354.34 354.484V354.702H363.232V354.359C363.232 352.924 362.836 351.78 362.046 350.927C361.276 350.054 360.247 349.617 358.957 349.617ZM378.649 344.126C378.108 344.126 377.713 344.001 377.464 343.751C377.235 343.481 377.12 343.138 377.12 342.722V342.316C377.12 341.9 377.235 341.567 377.464 341.318C377.713 341.047 378.108 340.912 378.649 340.912C379.19 340.912 379.575 341.047 379.804 341.318C380.053 341.567 380.178 341.9 380.178 342.316V342.722C380.178 343.138 380.053 343.481 379.804 343.751C379.575 344.001 379.19 344.126 378.649 344.126ZM377.401 347.901H379.897V364H377.401V347.901ZM385.201 364V347.901H387.697V350.522H387.822C388.217 349.606 388.768 348.878 389.476 348.338C390.204 347.797 391.171 347.526 392.377 347.526C394.041 347.526 395.352 348.067 396.308 349.149C397.286 350.21 397.775 351.718 397.775 353.673V364H395.279V354.11C395.279 351.218 394.062 349.773 391.628 349.773C391.129 349.773 390.64 349.835 390.162 349.96C389.704 350.085 389.288 350.272 388.914 350.522C388.54 350.771 388.238 351.094 388.009 351.489C387.801 351.863 387.697 352.31 387.697 352.83V364H385.201ZM424.191 354.141H413.178V364H410.557V342.222H413.178V351.832H424.191V342.222H426.812V364H424.191V354.141ZM438.42 364.374C437.317 364.374 436.319 364.177 435.424 363.782C434.551 363.386 433.792 362.825 433.147 362.097C432.523 361.348 432.034 360.464 431.68 359.445C431.348 358.405 431.181 357.24 431.181 355.95C431.181 354.682 431.348 353.527 431.68 352.487C432.034 351.447 432.523 350.563 433.147 349.835C433.792 349.086 434.551 348.514 435.424 348.119C436.319 347.724 437.317 347.526 438.42 347.526C439.501 347.526 440.468 347.724 441.321 348.119C442.174 348.514 442.902 349.066 443.505 349.773C444.108 350.459 444.566 351.281 444.878 352.238C445.211 353.194 445.377 354.245 445.377 355.389V356.574H433.802V357.323C433.802 358.01 433.906 358.654 434.114 359.258C434.343 359.84 434.655 360.35 435.05 360.786C435.466 361.223 435.965 361.566 436.548 361.816C437.151 362.066 437.827 362.19 438.576 362.19C439.595 362.19 440.479 361.951 441.228 361.473C441.997 360.994 442.59 360.308 443.006 359.414L444.784 360.693C444.264 361.795 443.453 362.69 442.351 363.376C441.248 364.042 439.938 364.374 438.42 364.374ZM438.42 349.617C437.733 349.617 437.109 349.742 436.548 349.991C435.986 350.22 435.497 350.553 435.081 350.99C434.686 351.426 434.374 351.946 434.145 352.55C433.916 353.132 433.802 353.777 433.802 354.484V354.702H442.694V354.359C442.694 352.924 442.299 351.78 441.508 350.927C440.739 350.054 439.709 349.617 438.42 349.617ZM461.19 364C460.254 364 459.578 363.75 459.162 363.251C458.767 362.752 458.517 362.128 458.413 361.379H458.257C457.904 362.378 457.321 363.126 456.51 363.626C455.699 364.125 454.732 364.374 453.609 364.374C451.903 364.374 450.572 363.938 449.615 363.064C448.679 362.19 448.211 361.005 448.211 359.507C448.211 357.989 448.762 356.824 449.865 356.013C450.988 355.202 452.725 354.796 455.075 354.796H458.257V353.205C458.257 352.061 457.945 351.187 457.321 350.584C456.697 349.981 455.741 349.679 454.451 349.679C453.473 349.679 452.652 349.898 451.986 350.334C451.341 350.771 450.801 351.354 450.364 352.082L448.866 350.678C449.303 349.804 450 349.066 450.957 348.462C451.913 347.838 453.12 347.526 454.576 347.526C456.531 347.526 458.049 348.005 459.131 348.962C460.213 349.918 460.753 351.25 460.753 352.955V361.816H462.594V364H461.19ZM454.014 362.253C454.638 362.253 455.21 362.18 455.73 362.034C456.25 361.889 456.697 361.681 457.072 361.41C457.446 361.14 457.737 360.828 457.945 360.474C458.153 360.121 458.257 359.736 458.257 359.32V356.668H454.95C453.515 356.668 452.465 356.876 451.799 357.292C451.154 357.708 450.832 358.311 450.832 359.102V359.757C450.832 360.547 451.113 361.161 451.674 361.598C452.257 362.034 453.037 362.253 454.014 362.253ZM468.809 364C467.935 364 467.269 363.761 466.812 363.282C466.375 362.783 466.157 362.159 466.157 361.41V340.912H468.653V361.816H471.024V364H468.809ZM478.062 364C477.188 364 476.523 363.761 476.065 363.282C475.628 362.783 475.41 362.138 475.41 361.348V350.085H472.758V347.901H474.256C474.796 347.901 475.16 347.797 475.348 347.589C475.556 347.36 475.66 346.975 475.66 346.434V343.439H477.906V347.901H481.432V350.085H477.906V361.816H481.182V364H478.062ZM485.443 340.912H487.939V350.522H488.064C488.459 349.606 489.011 348.878 489.718 348.338C490.446 347.797 491.413 347.526 492.619 347.526C494.283 347.526 495.594 348.067 496.551 349.149C497.528 350.21 498.017 351.718 498.017 353.673V364H495.521V354.11C495.521 351.218 494.304 349.773 491.871 349.773C491.371 349.773 490.883 349.835 490.404 349.96C489.947 350.085 489.531 350.272 489.156 350.522C488.782 350.771 488.48 351.094 488.251 351.489C488.043 351.863 487.939 352.31 487.939 352.83V364H485.443V340.912ZM509.167 364.374C508.043 364.374 507.035 364.177 506.14 363.782C505.246 363.386 504.487 362.825 503.863 362.097C503.259 361.369 502.791 360.485 502.459 359.445C502.147 358.405 501.991 357.24 501.991 355.95C501.991 354.661 502.147 353.496 502.459 352.456C502.791 351.416 503.259 350.532 503.863 349.804C504.487 349.076 505.246 348.514 506.14 348.119C507.035 347.724 508.043 347.526 509.167 347.526C510.768 347.526 512.047 347.88 513.004 348.587C513.982 349.274 514.71 350.178 515.188 351.302L513.098 352.362C512.807 351.53 512.328 350.886 511.663 350.428C510.997 349.97 510.165 349.742 509.167 349.742C508.418 349.742 507.763 349.866 507.201 350.116C506.639 350.345 506.171 350.678 505.797 351.114C505.423 351.53 505.142 352.04 504.955 352.643C504.767 353.226 504.674 353.87 504.674 354.578V357.323C504.674 358.738 505.048 359.902 505.797 360.818C506.567 361.712 507.69 362.159 509.167 362.159C511.184 362.159 512.64 361.223 513.535 359.351L515.344 360.568C514.824 361.733 514.044 362.658 513.004 363.345C511.985 364.031 510.706 364.374 509.167 364.374ZM530.568 364C529.632 364 528.956 363.75 528.54 363.251C528.144 362.752 527.895 362.128 527.791 361.379H527.635C527.281 362.378 526.699 363.126 525.888 363.626C525.076 364.125 524.109 364.374 522.986 364.374C521.28 364.374 519.949 363.938 518.992 363.064C518.056 362.19 517.588 361.005 517.588 359.507C517.588 357.989 518.14 356.824 519.242 356.013C520.365 355.202 522.102 354.796 524.452 354.796H527.635V353.205C527.635 352.061 527.323 351.187 526.699 350.584C526.075 349.981 525.118 349.679 523.828 349.679C522.851 349.679 522.029 349.898 521.364 350.334C520.719 350.771 520.178 351.354 519.741 352.082L518.244 350.678C518.68 349.804 519.377 349.066 520.334 348.462C521.291 347.838 522.497 347.526 523.953 347.526C525.908 347.526 527.427 348.005 528.508 348.962C529.59 349.918 530.131 351.25 530.131 352.955V361.816H531.972V364H530.568ZM523.392 362.253C524.016 362.253 524.588 362.18 525.108 362.034C525.628 361.889 526.075 361.681 526.449 361.41C526.824 361.14 527.115 360.828 527.323 360.474C527.531 360.121 527.635 359.736 527.635 359.32V356.668H524.328C522.892 356.668 521.842 356.876 521.176 357.292C520.532 357.708 520.209 358.311 520.209 359.102V359.757C520.209 360.547 520.49 361.161 521.052 361.598C521.634 362.034 522.414 362.253 523.392 362.253ZM535.534 364V347.901H538.03V350.865H538.186C538.477 350.095 538.997 349.409 539.746 348.806C540.495 348.202 541.524 347.901 542.835 347.901H543.802V350.397H542.336C540.984 350.397 539.923 350.657 539.153 351.177C538.404 351.676 538.03 352.31 538.03 353.08V364H535.534ZM552.891 364.374C551.788 364.374 550.79 364.177 549.896 363.782C549.022 363.386 548.263 362.825 547.618 362.097C546.994 361.348 546.505 360.464 546.152 359.445C545.819 358.405 545.652 357.24 545.652 355.95C545.652 354.682 545.819 353.527 546.152 352.487C546.505 351.447 546.994 350.563 547.618 349.835C548.263 349.086 549.022 348.514 549.896 348.119C550.79 347.724 551.788 347.526 552.891 347.526C553.972 347.526 554.94 347.724 555.792 348.119C556.645 348.514 557.373 349.066 557.976 349.773C558.58 350.459 559.037 351.281 559.349 352.238C559.682 353.194 559.848 354.245 559.848 355.389V356.574H548.273V357.323C548.273 358.01 548.377 358.654 548.585 359.258C548.814 359.84 549.126 360.35 549.521 360.786C549.937 361.223 550.436 361.566 551.019 361.816C551.622 362.066 552.298 362.19 553.047 362.19C554.066 362.19 554.95 361.951 555.699 361.473C556.468 360.994 557.061 360.308 557.477 359.414L559.256 360.693C558.736 361.795 557.924 362.69 556.822 363.376C555.72 364.042 554.409 364.374 552.891 364.374ZM552.891 349.617C552.204 349.617 551.58 349.742 551.019 349.991C550.457 350.22 549.968 350.553 549.552 350.99C549.157 351.426 548.845 351.946 548.616 352.55C548.388 353.132 548.273 353.777 548.273 354.484V354.702H557.165V354.359C557.165 352.924 556.77 351.78 555.98 350.927C555.21 350.054 554.18 349.617 552.891 349.617Z" fill="#0061AE"/>
</svg>
